<?xml version="1.0" encoding="UTF-8"?>
<svg id="Capa_2" xmlns="http://www.w3.org/2000/svg" version="1.1" viewBox="0 0 597.9 579.4">
  <!-- Generator: Adobe Illustrator 29.0.1, SVG Export Plug-In . SVG Version: 2.1.0 Build 192)  -->
  <defs>
    <style>
      .st0 {
        fill: #0026d4;
      }

      .st1 {
        fill: #330303;
      }

      .st2 {
        fill: #200510;
      }

      .st3 {
        fill: #6e505e;
      }

      .st4 {
        fill: #60262e;
      }

      .st5 {
        fill: #fdc0ef;
      }

      .st6 {
        fill: #f59bca;
      }

      .st7 {
        fill: #30b800;
      }

      .st8 {
        fill: #e70c15;
      }

      .st9 {
        fill: #f9a6d5;
      }

      .st10 {
        fill: #5d3644;
      }

      .st11 {
        fill: #be0409;
      }

      .st12 {
        fill: #60283b;
      }

      .st13 {
        fill: #11016e;
      }

      .st14 {
        fill: #08088e;
      }

      .st15 {
        fill: #49312d;
      }

      .st16 {
        fill: #a42660;
      }

      .st17 {
        fill: #fd6fc2;
      }

      .st18 {
        fill: #005a00;
      }

      .st19 {
        fill: #691542;
      }

      .st20 {
        fill: #0b0404;
      }

      .st21 {
        fill: #653941;
      }

      .st22 {
        fill: #fea1e7;
      }

      .st23 {
        fill: #6c5c63;
      }

      .st24 {
        fill: #fd2491;
      }

      .st25 {
        fill: #6e4e59;
      }

      .st26 {
        fill: #100408;
      }

      .st27 {
        fill: #030261;
      }

      .st28 {
        fill: #fdd5f3;
      }

      .st29 {
        fill: #000898;
      }

      .st30 {
        fill: #fe3290;
      }

      .st31 {
        fill: #814b64;
      }

      .st32 {
        fill: #89616a;
      }

      .st33 {
        fill: #6f3cd3;
      }

      .st34 {
        fill: #080209;
      }

      .st35 {
        fill: #1d0508;
      }

      .st36 {
        fill: #fad2e6;
      }

      .st37 {
        fill: #493038;
      }

      .st38 {
        fill: #2b040a;
      }

      .st39 {
        fill: #07004e;
      }

      .st40 {
        fill: #3c0f1c;
      }

      .st41 {
        fill: #040002;
      }

      .st42 {
        fill: #25171b;
      }

      .st43 {
        fill: #9c5978;
      }

      .st44 {
        fill: #fbb3e1;
      }

      .st45 {
        fill: #0309a7;
      }

      .st46 {
        fill: #1d12c6;
      }

      .st47 {
        fill: #7c656e;
      }

      .st48 {
        fill: #7a6b6a;
      }

      .st49 {
        fill: #080405;
      }

      .st50 {
        fill: #eba7c6;
      }

      .st51 {
        fill: #090010;
      }

      .st52 {
        fill: #010186;
      }

      .st53 {
        fill: #110708;
      }

      .st54 {
        fill: #02001f;
      }

      .st55 {
        fill: #6a012a;
      }

      .st56 {
        fill: #1f3060;
      }

      .st57 {
        fill: #020009;
      }

      .st58 {
        fill: #684952;
      }

      .st59 {
        fill: #f99ccc;
      }

      .st60 {
        fill: #0aab00;
      }

      .st61 {
        fill: #371824;
      }

      .st62 {
        fill: #b07e92;
      }

      .st63 {
        fill: #f8121a;
      }

      .st64 {
        fill: #e95590;
      }

      .st65 {
        fill: #ef8fd3;
      }

      .st66 {
        fill: #000705;
      }

      .st67 {
        fill: #040da7;
      }

      .st68 {
        fill: #2425cf;
      }

      .st69 {
        fill: #4214aa;
      }

      .st70 {
        fill: #220509;
      }

      .st71 {
        fill: #543641;
      }

      .st72 {
        fill: #00016b;
      }

      .st73 {
        fill: #00003b;
      }

      .st74 {
        fill: #461d31;
      }

      .st75 {
        fill: #340e1f;
      }

      .st76 {
        fill: #0304a8;
      }

      .st77 {
        fill: #371827;
      }

      .st78 {
        fill: #002adf;
      }

      .st79 {
        fill: #664651;
      }

      .st80 {
        fill: #010078;
      }

      .st81 {
        fill: #30121c;
      }

      .st82 {
        fill: #e35992;
      }

      .st83 {
        fill: #1713c3;
      }

      .st84 {
        fill: #a67e8b;
      }

      .st85 {
        fill: #fea0eb;
      }

      .st86 {
        fill: #fd7dd4;
      }

      .st87 {
        fill: #382ce6;
      }

      .st88 {
        fill: #0104a5;
      }

      .st89 {
        fill: #b30304;
      }

      .st90 {
        fill: #fd66c2;
      }

      .st91 {
        fill: #0f10c5;
      }

      .st92 {
        fill: #080406;
      }

      .st93 {
        fill: #eb5999;
      }

      .st94 {
        fill: #17014b;
      }

      .st95 {
        fill: #fe65be;
      }

      .st96 {
        fill: #4be500;
      }

      .st97 {
        fill: #8957bf;
      }

      .st98 {
        fill: #eb438d;
      }

      .st99 {
        fill: #fe49ab;
      }

      .st100 {
        fill: #93556d;
      }

      .st101 {
        fill: #a4030b;
      }

      .st102 {
        fill: #750006;
      }

      .st103 {
        fill: #fbbcea;
      }

      .st104 {
        fill: #059c00;
      }

      .st105 {
        fill: #070181;
      }

      .st106 {
        fill: #473df8;
      }

      .st107 {
        fill: #0c0cbd;
      }

      .st108 {
        fill: #150032;
      }

      .st109 {
        fill: #fe4ba8;
      }

      .st110 {
        fill: #bf3067;
      }

      .st111 {
        fill: #000386;
      }

      .st112 {
        fill: #feb9e6;
      }

      .st113 {
        fill: #281b18;
      }

      .st114 {
        fill: #220207;
      }

      .st115 {
        fill: #0201a2;
      }

      .st116 {
        fill: #250266;
      }

      .st117 {
        fill: #5e3e48;
      }

      .st118 {
        fill: #1327cf;
      }

      .st119 {
        fill: #5b3446;
      }

      .st120 {
        fill: #5f384a;
      }

      .st121 {
        fill: #00028f;
      }

      .st122 {
        fill: #fcbff6;
      }

      .st123 {
        fill: #5e1687;
      }

      .st124 {
        fill: #03029e;
      }

      .st125 {
        fill: #000173;
      }

      .st126 {
        fill: #fceaf8;
      }

      .st127 {
        fill: #005203;
      }

      .st128 {
        fill: #462d38;
      }

      .st129 {
        fill: #b04070;
      }

      .st130 {
        fill: #5d002c;
      }

      .st131 {
        fill: #000179;
      }

      .st132 {
        fill: #0d1acc;
      }

      .st133 {
        fill: #642a32;
      }

      .st134 {
        fill: #9a1453;
      }

      .st135 {
        fill: #fb7ec9;
      }

      .st136 {
        fill: #01004d;
      }

      .st137 {
        fill: #f6caea;
      }

      .st138 {
        fill: #febcf5;
      }

      .st139 {
        fill: #09a800;
      }

      .st140 {
        fill: #07b300;
      }

      .st141 {
        fill: #f3a5cc;
      }

      .st142 {
        fill: #140fc1;
      }

      .st143 {
        fill: #28be01;
      }

      .st144 {
        fill: #07ac00;
      }

      .st145 {
        fill: #604854;
      }

      .st146 {
        fill: #47614d;
      }

      .st147 {
        fill: #f871ad;
      }

      .st148 {
        fill: #029101;
      }

      .st149 {
        fill: #f282c3;
      }

      .st150 {
        fill: #02018f;
      }

      .st151 {
        fill: #ee7ea9;
      }

      .st152 {
        fill: #fea0e2;
      }

      .st153 {
        fill: #4a0135;
      }

      .st154 {
        fill: #002602;
      }

      .st155 {
        fill: #3a027f;
      }

      .st156 {
        fill: #0012b5;
      }

      .st157 {
        fill: #fefdfe;
      }

      .st158 {
        fill: #02006a;
      }

      .st159 {
        fill: #fe76d0;
      }

      .st160 {
        fill: #14060a;
      }

      .st161 {
        fill: #01038d;
      }

      .st162 {
        fill: #007a00;
      }

      .st163 {
        fill: #dfbdcd;
      }

      .st164 {
        fill: #482933;
      }

      .st165 {
        fill: #6c2c46;
      }

      .st166 {
        fill: #7e0102;
      }

      .st167 {
        fill: #36232a;
      }

      .st168 {
        fill: #53253c;
      }

      .st169 {
        fill: #51242f;
      }

      .st170 {
        fill: #1e002e;
      }

      .st171 {
        fill: #c899aa;
      }

      .st172 {
        fill: #070597;
      }

      .st173 {
        fill: #020203;
      }

      .st174 {
        fill: #8c7079;
      }

      .st175 {
        fill: #fe98d3;
      }

      .st176 {
        fill: #006500;
      }

      .st177 {
        fill: #006c00;
      }

      .st178 {
        fill: #110507;
      }
    </style>
  </defs>
  <g id="Capa_1-2">
    <g>
      <path class="st173" d="M261,530.7c-9.7,7.6-19.3,15.1-29,22.7-8.2,6.2-20.1,5-27.3,13.4-13.2,4.3-26.2,4.5-39.1-1.4-6.4-4.7-12.3-9.8-13.6-18.3,2-6,4.2-11.9,7.9-17.1,3.1-2.4,6.6-2.7,10.2-1.8,1.6.6,3.1,1.5,4.4,2.7,14.4,9.3,28.3,8.7,38.3-1.7,5.9-10.4,13.9-18.6,24.4-24.4,12-3.9,5.8-14.6,8.2-22.1.8-4.2,2.2-7.9,6.1-10.3,29.8-5.3,59.6-3.3,89.4-1.3,8.1,3.1,6,8.9,4.6,15.3-1.5,7-3.4,14.9,5.6,19.2,9.4,6.3,13.7,17.5,23,24,12.6,11.1,25.9,10.3,39.5,2.1,1-1.3,2.2-2.5,3.5-3.6,8.1-6.4,8.4-11.9-1.8-16.3-10.5-5.9-18.8-14.1-24.4-24.8-3.1-8.4-13-13.6-11.6-24.2.2-3.8,1.1-7.4,3.6-10.4,22.9-11.4,23.4-18.2,5.4-38-7.4-8.2-23-13.1-15.6-29.5,14.3-9,23.6,0,32.8,9.1,4.1,4.6,8.1,9.3,13.3,12.9,4.3,9.2,15.9,5.8,21.7,12.4,6.8,10.6-8,15.5-6.5,24.7.1,12.1,0,24.2-.2,36.4-1,6.8.4,12.7,6.6,16.7,1.1,1.1,2,2.5,2.5,4,.3,1.1.5,2.3.7,3.5,1.7,10,1.5,20,.3,30-1.7,14.3-12.5,21.7-22.4,29.9-11,7.5-22.8,5.9-34.7,3.1-7.6-11-20.5-8.1-30.9-11.7-6.7-4.2-11.2-10-12.9-17.8-.9-7-9.6-5.5-11.9-11-5.4-2.2-10.5-4.8-13.9-10-1.9-2.8-3.3-5.8-4.6-8.8-12.1-9-24.7-8.8-34.9.6-.5,3.4-1.2,6.7-2.5,9.9-2.5,6.5-8.9,8.2-14,11.6h0Z"/>
      <path class="st92" d="M126.7,453.2c-2.2-.2-4.4-.5-6.6-.8-4.7-2.2-7.2-5.5-5.2-10.9,7.4-8.3,15.6-15.9,23.4-24,2.9-1.9,6.2-2.6,9.7-2.9,7-1.7,16.4,3.5,20.1-7.3,1.4-3,3.2-5.8,5.5-8.3,2.4-2.4,5.2-4,8.2-5.3,5.7-1.3,8.8-5.8,12.2-9.9,5.9-5.3,12.2-10.6-.7-15-8-.5-15.9-.7-20.8,7.6-8.1,3.8-16,8-23.7,12.6-3.7,1.5-7.6,1.9-11.5,2.1-10.1.5-20.1.9-30.1-.9-15.8-6-10-14.1-2.1-22.3,8.7-4.6,16.1-11.7,26.1-13.9,10.9-2.4,11-12.3,14.3-20,7.1-7.4,16.5-7.7,25.8-8.7,4,0,7.9.6,11.5,2.6,5.6,8.6,16.1,7.6,23.8,12.1,5,8.3,13.4,7,21.2,7.2,6.7.2,13.4-.2,19.9,1.9,2.7,1,5,2.7,6.6,5.1.9,1.7,1.3,3.5,1.1,5.4-6.2,12.4-17.1,20.4-27.1,29.2-15.6,12.8-29.6,27.1-42.4,42.6-5.5,6.9-10.9,13.8-19.9,16.4-8.3-1-13.5,5.1-19.9,8.6-6.9,2-13.4,1.3-19.3-3.2h0Z"/>
      <path class="st49" d="M130.7,311.8c-9.3-4.7-12-12.7-11-22.5,3.5-32.2,3.4-64.4,0-96.7.2-4.9.5-9.8.7-14.7.6-3.9,3.4-5.9,6.4-7.7,10.2-3.1,4.4-16.3,12.9-20.5,3.9-1.4,7.5-1.1,10.8,1.4,6,7.7,3.4,17.4,5.8,25.9,1.7,11.9-6.1,20.5-10.7,30.2-3.1,22.6-2.5,45.3-.3,67.9,1.7,9.5,10.9,16.2,10,26.7-5.4,10.6-13.2,15-24.8,10h0Z"/>
      <path class="st70" d="M461.1,177.8c1.5,4.9,3,9.9,4.5,14.8,1,6.2,1.9,12.5,1.4,18.8-.6,33.4,2.4,66.8-1.7,100.1.1,1.2,0,2.5-.2,3.7,1.7,6,.9,11.6-3.3,16.4-3.4,2.5-7.2,3.2-11.3,3.2-4.1,0-8-.9-11.5-3.4-2.9-3.2-3.4-7.1-3-11.3.5-4.8,2-9.5,1.9-14.5-1.2-15,10.9-27.7,7.2-43.1-2-18.7,4.1-38-4-56.3-1.3-2.8-2-5.7-2.1-8.8,0-3,.6-5.9,1.9-8.6,5.6-5.6,8.7-15.9,20.1-11.2h0Z"/>
      <path class="st20" d="M138.7,11.2c24.1-10.9,76.5-5.3,89.7,9.2,2.3,2.5,3.4,5,3.3,8.1,1.1,4.1-1.5,6-4.5,7.6-13.3,4.7-26.3-1.3-39.5-1.4-11.5-.1-22.9-.3-34.4,1.4-19.5-5.6-21.1-8.4-14.7-25h0Z"/>
      <path class="st166" d="M138.9,419.4c-3.2,12-11.4,18.9-22.8,22.5-9.3,6.5-19.2,7.5-29.7,3.6-4.6-2.8-8.6-6.1-11-11.1,3.5-8.8.2-19.2,6.9-27.2,3.6-2.2,7.3-2.2,11-.2,3.2,2.4,4.4,5.9,5.3,9.5.9,3.3.4,7.6,5.4,8.2,4.7.6,6.6-1.9,7-6.1.2-3.1.4-6.2.2-9.3.5-6.5-6.1-8.7-8.3-13.6-.9-3.6-.7-6.9,2.6-9.4h32.9c8.2,10.9,7.7,21.9.6,33.1h0Z"/>
      <path class="st35" d="M509.5,51.8c1.1,2.6.2,6.2,4,7.3,12.1,12.7,13.3,29.8,3.6,47.8-10.9,5.5-4.6,22.6-17.9,26.5-9,2.8-16.4-.4-23-6.4-.9-1.6-1.2-3.4-1-5.2,12.1-15.5,22.1-31.4,9.8-51.6-1-2.8-1.3-5.6-1.2-8.5.4-3.1,1.4-5.9,3.4-8.3,7.1-5.3,14.3-8.5,22.2-1.6h0Z"/>
      <path class="st114" d="M473.1,355.4c14.2,10.9,27.8,22.3,37.3,37.9,1.2,12.8,4.6,25.8-3.8,37.6v-.2c-3.6,2.7-7.4,3.3-11.4,1.2-5.3-5-5.3-11.9-5.2-18.3,0-6.5-1.9-11.6-7.4-15.1-4.9-8.6-13.2-6.9-21-7.1-7.3-.2-14.6.4-21.8-1.6-4.8-1.9-8.5-4.7-8.7-10.4,11.8-7.5,27.1-9.9,33.9-24.4,2.8-1.2,5.5-1.1,8.1.5h0Z"/>
      <path class="st160" d="M332.2,77.7c7.2-6.3,14.4-12.7,21.6-19,9.5-4.6,16.9-.7,23.7,5.9,1.6,2.5,2.2,5.3,1.9,8.2-.5,2.8-2,5.1-4.2,6.9-12.4,6.4-20.8,17.5-30.6,26.9-4.2,3.8-8.7,7-14.6,7.2-8.4-1.6-17.5,0-25-5.8-2.4-3.3-2.6-6.9-1.2-10.7,4.2-8.5,17.6-2.8,20.6-13.2,1.7-3.3,4.6-5.1,8-6.4h0Z"/>
      <path class="st165" d="M92.9,62.6c-.5-19.1,15.7-26.2,26.5-37.3,14.9-3.7,15.1,12.6,23.7,17.3.8,1.8,1,3.6.6,5.5-2.9,6.7-8.7,9.8-15,12.2-8,2.1-6.6,8.8-7.1,14.6-.7,7.6.8,15.7-4.8,22.3-3.4,2.2-7,2.4-10.7.9-10.8-8-1.4-22.6-10.3-31.2-1.3-1.2-2.3-2.6-2.9-4.2h0Z"/>
      <path class="st12" d="M509.5,51.8c-7.3,1.2-14.6,2.3-22,3.4-9,3.5-18.3.9-27.5,1.6-13.9-.2-27.8,1.3-41.6-1.1-4.5-1.3-8.1-3.6-10.2-7.9-1-3.4-.6-6.5,2-9.1,16.5-7.6,34-2.4,50.9-3.9,7.7-.7,16.2,2.1,22.5-5,15.5-.7,22.5,8.5,25.9,22h0Z"/>
      <path class="st71" d="M465.4,311.6c-6.4-4.6-3.6-11.3-3.6-17.1-.1-29,.1-58.1.2-87.1,11-.8,10.5,9.5,14.7,15.3,1.7,27.3,5.6,54.6-3.6,81.4-2.6,2.5-5.2,4.9-7.8,7.4Z"/>
      <path class="st128" d="M119.8,192.7c6.6.2,7.7,4.5,7.7,10,0,25.6,0,51.2,0,76.8,0,5.5-1.2,9.7-7.7,10-1.3-1.2-2.7-2.5-4-3.7-9.2-29.8-6.3-59.5.1-89.2,1.3-1.2,2.7-2.5,4-3.7h0Z"/>
      <path class="st164" d="M227.1,33.3c1.5-1.6,3.1-3.1,4.6-4.7,22.7-3.9,29.4,18.4,44.4,27.1,1.6,16.3-11.9,11.3-19.9,14.1-9-.8-14.9-7.3-21.9-11.9-2.2-1.7-3.9-3.8-5.3-6.3-2.2-5.9-4.3-11.9-2-18.3h0Z"/>
      <path class="st120" d="M476.7,125.7c7.5,2.6,15,5.1,22.6,7.7-9.9,12.3-21.1,23.3-33.2,33.4-12.6-1.6-10.3-13.2-13.9-20.9,0-6.1,4-10.1,7.9-14,5.1-3.3,9.4-8.8,16.7-6.2h0Z"/>
      <path class="st75" d="M130.7,311.8c8.1-3.1,18.3-2,22.9-11.9,4.6-3.2,8.2-.9,11.7,2.2,1.1,1.3,2,2.8,2.8,4.3,1.7,4.8,4.7,8.9,6.5,13.6.9,3.5.6,6.8-1.9,9.6-9.1,1.5-18.1,3-27.2,4.5-3.1-8.6-16.6-10.4-14.7-22.2h0Z"/>
      <path class="st53" d="M483.7,29.8c1,9.9-5.4,10.6-12.8,10.6-20.2-.2-40.4-.3-60.6-.4-3.5-1-5.9-2.6-3.8-6.8,25.4-8.7,51.5-3.1,77.2-3.4h0Z"/>
      <path class="st77" d="M305.8,95.8c0,4,0,8-.1,11.9.3,5.2-3.4,5.6-7.1,6-8.5-1.5-14.1-7.8-20.7-12.5-3.4-3.6-5.1-7.7-4-12.7,4.2-7.7,3.8-18.2,13.6-22.6,7.4-2.3,6.1,6.6,10.5,8.1,4.1,3.4,8.7,6.3,10.4,11.8.9,3.8.3,7.2-2.5,10h0Z"/>
      <path class="st169" d="M495.4,430.5c3.7,0,7.4,0,11.1.1-1.2,13.7-10.5,19.4-22.4,22.6-10.8,1.3-21.3,8.2-32.5,1.8-3.9-3-4.5-7-3.4-11.4,5.6-10.3,18.8-4.2,25.5-12,3.3-2.2,6.7-4,10.7-4.7,4.2-.6,7.8.7,10.9,3.5h0Z"/>
      <path class="st2" d="M454.4,144c7,6.1,6.1,16.1,11.7,22.9.5,4.6-2.9,7.5-4.9,11-8.9-.8-9.7,11.6-18.3,11.3-3.6.3-5.4-1.9-6.7-4.8-2.2-6.8-1.9-13.8-.8-20.7,3.3-9.4,7-18.6,19-19.7h0Z"/>
      <path class="st31" d="M116.4,151.5c.7-14.4-14.2-18.7-19-29.5,4.4-6.8,11.3-7.9,18.5-8.5,5.1-.3,10.1-.2,15,1.7,2.9,1.4,4.9,3.4,5.3,6.7-3.3,10.1-1.9,21.6-8.8,30.7-3.9,2.3-7.6,2.2-10.9-1.1Z"/>
      <path class="st1" d="M93.7,408c-3.6,0-7.2.1-10.8.2-5.2-3.6-5.7-9.7-7.8-14.9,9.1-9.5,15.2-22.6,30-25.5,4,6.1-11.9,12.6.4,18.5-.2,3.5-.4,7-.6,10.5-2.1,4.2-6,6.9-9.1,10.2-.7.3-1.4.7-2.1,1h0Z"/>
      <path class="st117" d="M141.5,504.7c-1.1-14.2,13.6-25.3,7.7-40.4.8-.7,1.5-1.4,2.3-2.1,4.3-1.6,8.1-1.2,11.3,2.5,5.5,12.9,3.7,26.1,2,39.3-.6,2-1.6,3.7-2.9,5.3-3.4,2.6-7.3,3-11.3,2.2-3.8-1.1-7.2-3-9.1-6.7h0Z"/>
      <path class="st26" d="M287.4,65.9c-5.8,6.8-.8,19.1-12,23-11.9-.3-16.6-9.9-22.8-17.7-.5-1.7-.3-3.3.6-4.8,7.2-4.5,18.9.5,23-10.8,9.4-2.8,6.8,7.6,11.2,10.3h0Z"/>
      <path class="st47" d="M384.1,563.7c12.4.3,24.9.6,37.3.9.4,4.3-2.4,7.2-4.6,10.3-17,9.2-34,9.3-51.1,0-.5-1.1-.6-2.2-.5-3.3,1.9-13.3,9.6-12.3,18.9-7.9h0Z"/>
      <path class="st40" d="M142.4,44.2c-13.6,1-12.8-15.7-23-18.8,5.7-5.7,8.8-15.1,19.3-14.1-3.3,13,4.1,18.7,15.1,21.9.9,1.5,1.1,3.1.5,4.7-2.9,4.1-5.7,8.6-12,6.3h0Z"/>
      <path class="st129" d="M93.4,107.6c1.3-2.5,2.6-4.9,4-7.4,1.1-3.7,3.3-5.5,7.3-4.7,3.6,0,7.3,0,10.9,0,7.5,7.2,6.6,14.8,1,22.6-6.4,1.3-12.8,2.6-19.2,3.9-6-3.5-2.2-9.7-4-14.4h0Z"/>
      <path class="st174" d="M204.9,574.9c-11,.2-22,.3-33,.5,1.2-6.6-15.4-5.1-6.8-15,12.8,7.6,26.9,2,40.2,4.1,2.3.4,3.8,1.7,4.2,4.1-1.6,2.1-3.1,4.2-4.7,6.4h0Z"/>
      <path class="st133" d="M75.1,393.3c10.3.9,6.9,9,7.8,14.9-2.9,8.6,6.3,20.6-7.5,26.1-6.1-13.6-6.2-27.3-.3-41h0Z"/>
      <path class="st32" d="M138.8,541.8c-.3-11.2-.6-22.5-.8-33.8,1.2-1.1,2.4-2.2,3.6-3.3,3.4.4,6.7.9,8.6,4.3,7,11.4,8.2,22.5-1.2,33.3-3.4-.2-6.8-.3-10.2-.5h0Z"/>
      <path class="st21" d="M506.7,430.8c1-12.5-4.3-25.7,3.8-37.6,12.2,13.8,10.2,33.9-3.8,37.6Z"/>
      <path class="st167" d="M384.1,563.7c-6.7,1.7-15.7-2.2-18.9,7.9-3.5-2.6-7-5.2-10.5-7.7-3.7-3.7-3.8-7.3,0-10.9,9.9,3.4,25.4-8.6,29.4,10.8h0Z"/>
      <path class="st84" d="M406.5,33.2c1.3,2.3,2.5,4.5,3.8,6.8,0,2.6-.1,5.2-.2,7.9-.5,8.6-7.5,7.1-12.8,8.3-3.9,0-7.6-.3-11.3-1.7-1.8-.8-3.1-2-4.2-3.7-1.5-3.8-1.1-7.3,2-10.2,9,2.3,13.5-9.4,22.5-7.3h0Z"/>
      <path class="st37" d="M209.7,568.5c-1.4-1.4-2.8-2.7-4.2-4.1,2.3-19.5,17.2-8.6,26.6-10.9-2.2,12.8-11.5,15-22.3,15Z"/>
      <path class="st25" d="M376,66.5l-22.2-7.8c2.5-2.6,5-5.2,7.5-7.8,7.5-5.3,15-5.7,22.4.1v1.4c3.9,8.2,7,15.9-7.6,14Z"/>
      <path class="st61" d="M443.7,534.7c-6.2-10-6.4-20-.3-30,11,9.9,11.3,19.9.3,30Z"/>
      <path class="st4" d="M86.4,445.4c9.6-3.4,19.5-4.6,29.7-3.6,1.3,3.5,2.7,7.1,4,10.6-11.5-1-24.7,5.8-33.7-7h0Z"/>
      <path class="st58" d="M126.7,453.2c7.7-.3,15.3-.5,23-.8,3.3,3.3,3.5,6.9,1.2,10.8-.5.4-1,.8-1.6,1-7.6-3.4-22.4,7.8-22.5-11Z"/>
      <path class="st23" d="M473.5,203.7c-.4,5-.9,10-1.3,15.1-3.4-3.8-6.8-7.5-10.2-11.3.5-5.1-2.9-11.1,3.6-14.8,5.4,1.7,7.5,5.8,7.9,11Z"/>
      <path class="st0" d="M394.4,486.5c7.6,7.4,15.2,14.8,22.7,22.2,6.1,7.3,6.1,14.7,0,22h.1c-15,9-30,8-45.2.8-14-1-12.3-17.2-21.9-22.5-8-10.6-5.6-21.5-1.2-32.6,7-8.1,15.8-7.4,23.4-2.6,7.2,4.6,15.9,6.7,22.2,12.8h0Z"/>
      <path class="st78" d="M238.4,507.9c-7.3,7.5-14.7,15.1-22,22.7-14.8,8.8-29.5,8.7-44.3.1l.2-.2c-5.5-5.4-5.3-11.8-3.6-18.6.6-1.7,1.6-3.3,2.8-4.6,14-3.5,24.2-12.5,33.6-22.9,1.7-1.1,3.5-1.8,5.4-2.4,10.5-1.3,21-3.4,30.2,4.2,4.2,7.7,4.2,15-2.1,21.6h0Z"/>
      <path class="st127" d="M346.1,476.2c-32.1-.3-64.3-.6-96.4-.9-14,9.5-29.6,4-44.6,4.8-9.7-1.6-16.3-5.4-11.6-16.9,14.2-9,30-3.2,45-4.8,24.9-1,49.8-1,74.7,0,7.3.2,14.6-.5,21.8,1.4,6,1.8,10.4,5.4,12.6,11.3.5,2,0,3.7-1.6,5h0Z"/>
      <path class="st18" d="M372.6,385.8c1.9,15.8,16.2,22.9,25.7,31.6,11,10,8.2,20.1,6.4,29.5-1.9,10.1-13.3,4.8-20.4,6.6-.7-.5-1.4-1.1-2-1.6,1.4-15.4-4.5-27.5-15.3-38.3s-13.4-16.3-6.9-27.7c3-2.9,6.5-3.3,10.3-1.9.7.6,1.5,1.2,2.2,1.8h0Z"/>
      <path class="st72" d="M405.4,397.3c-11.8-1.5-18.6-17.1-32.9-11.5v.2c-3-3.6-4.6-7.6-4-12.4,1.7-9,7.6-13.5,16.3-14.9,10.2-1.5,20.5-1.4,30.7-.4,7.4.7,14.7,2.3,15.4,11.9-.4,6-5,7.9-9.7,9-7.8,1.8-10,8-12.1,14.4-.9,1.6-2.1,2.9-3.7,3.7h0Z"/>
      <path class="st79" d="M450.8,452c-3.5,1.8-6.4,4.2-7.6,8.2-7.3,7.8-1.6,17.7-4.4,26.2-3.6,2.7-7,2.9-10-.8,0-14.5,0-28.9-.1-43.4,7.1-6.5,14.4-7.1,21.9-.6,0,3.5.1,6.9.2,10.4h0Z"/>
      <path class="st38" d="M450.7,441.6c-7.3.2-14.6.4-21.9.6-4.7-11.3,14.5-11.8,10.3-22.9.6-.6,1.3-1.2,1.9-1.8,10.3-4.5,14.1,9.1,23.2,8.1,5.5,1.3,11.2,2.5,12.7,9.2-6.6,10.5-17.2,5.5-26.2,6.7h0Z"/>
      <path class="st67" d="M394.4,486.5c-8.7-.9-17.9,2.3-24.2-8.6-3.4-5.9-12.6-2.1-19.3-2.4-.5-.9-.9-1.7-1.4-2.5,1.3-8,7-11.2,14-13.2,7-1,13.9-1.4,19.6,4.1-3.3,11.1,16.9,10.4,11.2,22.6h0Z"/>
      <path class="st48" d="M294.8,520.1c-7.6-.2-15.1-.4-22.7-.6.2-3.5.4-6.9.6-10.4,14.6-9.3,29.3-9.2,43.9,0,1.2,2.5,2.3,5,3.5,7.5-7.9,5.3-16.9,1.9-25.3,3.6h0Z"/>
      <path class="st56" d="M205.7,475.4c14.7,0,29.3,0,44,0,0,3.6-.2,7.2-.3,10.9-3.5,3.2-7.1,2.9-10.7.2-11.1-.2-22.2-.4-33.4-.7-3-3.6-2.9-7,.3-10.4h0Z"/>
      <path class="st113" d="M316.6,509c-14.6,0-29.3,0-43.9,0,0-1.2-.4-2.6,0-3.7,7.2-16.6,21.4-5,32.1-7.7,8.1-2,13,2.2,11.8,11.3Z"/>
      <path class="st125" d="M172,530.7c14.8,0,29.6,0,44.3-.1.3,3.6,1.6,9-2.4,9.8-13.3,2.8-26.9,3.1-40-1.1-1.4-.5-1.3-5.6-2-8.6Z"/>
      <path class="st131" d="M371.9,531.4c15.1-.2,30.2-.4,45.2-.7-.1,1.2.2,2.7-.4,3.6-8.6,14.6-22.8,4.8-34.1,7.5-7.7,1.8-11.2-2.8-10.8-10.5Z"/>
      <path class="st42" d="M148.9,542.2c.4-11.1.8-22.2,1.2-33.3,3.6-.2,7.1-.4,10.7-.5,6.5,7.3,6,14.6.2,22-.9,6.1,2.2,14.3-8.2,15.4-1.3-1.2-2.6-2.4-3.9-3.6Z"/>
      <path class="st14" d="M417,408.6c-7.6,0-11.3-3.9-11.6-11.4.6-.2,1.2-.5,1.8-.7,10.8-7.4,21.7-6.6,32.8-.6,3,4.4,3,8.7.1,13.2-7.8,5.5-15.5,4.9-23.1-.5h0Z"/>
      <path class="st29" d="M350.9,475.5c-.3,11.1-.5,22.3-.8,33.4-14-5.5-15.3-16.2-4-32.7l.9-1.3c1-1.4,2-1.4,3.1,0l.9.6h0Z"/>
      <path class="st146" d="M383.1,463.8c-7.3,0-14.6-.1-21.9-.2-5.6-10.8,1.2-13.6,9.8-15.4,4.6-.2,8.8.9,12.1,4.3,0,0,1.1.9,1.1.9-.4,3.4-.8,6.9-1.2,10.3h0Z"/>
      <path class="st161" d="M161,530.4c0-7.3,0-14.6-.2-22v.2c3.5-3.1,7.1-3.4,10.8-.5.2,7.5.4,14.9.6,22.4-3.7,0-7.5-.1-11.2-.2h0Z"/>
      <path class="st111" d="M238.7,486.4c3.6,0,7.1-.1,10.7-.2-1.7,8.2,8.5,22.5-11,21.7,0-7.2.2-14.3.3-21.5h0Z"/>
      <path class="st108" d="M417,408.6c7.3-.2,14.7-.4,22-.6,3.7,3.4,3.6,7.1.9,11,0,0-.8.4-.8.4-8-2.2-21.3,6.4-22.1-10.7h0Z"/>
      <path class="st121" d="M417,530.6c0-7.3,0-14.6,0-22,9-1.9,11.4,2.4,11.4,10.8,0,8.4-2.8,12.4-11.5,11.2h0Z"/>
      <path class="st81" d="M428.9,485.7c3.3.3,6.7.5,10,.8.4,4.8.7,9.6,1.1,14.4-7.3-2.5-13.2-5.9-11.1-15.2Z"/>
      <path class="st60" d="M227.7,385.8c7.3-10,16.3-18.4,26.1-25.9,4.8-3.4,7.8-.8,10.3,3.2,1.8,3.9,2.1,8,1.9,12.2-18.9,15-20.6,41.7-38.5,57.5-7.1,3.3-14.1,3.5-21.1-.2-6.3-6.2-4-12.6,1.3-17.3,9.2-8.3,14.2-19.1,20-29.5h0Z"/>
      <path class="st66" d="M254.3,356.3l-4.4-4.2c-2.8-3-3.3-6.4-2.1-10.2.8-1.8,1.9-3.2,3.4-4.5,8.2-5.5,17.1,0,25.5-1.7,13.6-.3,27.2.5,40.8,0,14-.6,25.5,3.5,33.9,15.2,2.4,4.2,2.6,8.4.3,12.7-3.2,3.6-7.5,4.6-12.1,4.8-4.4.2-8.6-.8-12.4-3-4.8-6.9-11.9-7.4-19.5-7.4-17.8,0-35.7,1.1-53.4-1.5h0Z"/>
      <path class="st7" d="M205.1,430.3c7.4,0,14.8,0,22.2-.1,6,14.6-10.7,15.7-14.5,24.5-11.4,5.1-23.7,3-35.5,5.2-7.6-1.9-13.9-5-12.9-14.5,6-5.2,12.1-10.4,18.1-15.5,7.6-5.1,15.2-5.9,22.6.4h0Z"/>
      <path class="st130" d="M205.2,341.8c-8-2.6-21.5,5.4-22.3-11.4,4.3-5.4,10.7-6,16.5-5.4,14.2,1.6,22.7-4.7,27.2-17.6,3.6-2.7,7.5-3,11.6-1.2,3.6,2.5,4.8,6.3,5.6,10.2-1.5,9,14.8,13.8,5.9,24.6h-.1c-14.6,9.2-29.4,8.3-44.4.8h0Z"/>
      <path class="st134" d="M228.4,308.1c2,17.6-5.3,25-23.2,22.4-7.3-1-14.8-.1-22.2,0-3.4-.3-6.9-.5-10.3-.8-.3-3.4-.7-6.9-1-10.3,9.2-10.5,24.4-.7,34-10.1,4.6-3.6,9.1-7.3,15.2-7.9,4.1.5,7.9,1.3,7.5,6.8h0Z"/>
      <path class="st176" d="M205.1,430.3c-7.5-.1-15.1-.3-22.6-.4,11.3-18.6,25.8-33.8,45.2-44.1,3.8,15.3-5.4,25-16,32.8-4.7,3.5-6.4,6.7-6.6,11.7h0Z"/>
      <path class="st162" d="M254.3,356.3c22-7.9,44.6-2.5,66.9-3.5,7-.3,6.9,5.4,7.3,10.3-22.3,10.2-44.9,8.2-67.4,1-1.5-3-4.2-3.9-7.3-4.2,0-1.2.2-2.4.5-3.6h0Z"/>
      <path class="st68" d="M182.6,396.2l-6.6,4.7c-9.5,2.2-18.8,3-27.3-3.2-2.5-4.1-2.3-8.1.3-12,5.1-8.3,12.1-12.8,22.1-11.6,17.1-1,19.9,4.6,11.4,22.2h0Z"/>
      <path class="st170" d="M205.2,341.8c14.8-.3,29.6-.5,44.4-.8,0,3.7.2,7.5.2,11.2-11.1.1-22.2,0-33.3.4-7.8.3-11.5-3.1-11.3-10.8h0Z"/>
      <path class="st52" d="M182.6,396.2c-1-8.8,5.9-21.8-11.4-22.2,1.4-17.5,14.8-8.4,23.2-10.5,6,7.5,5.9,15,.1,22.6,0,8-3.5,12-11.9,10.1h0Z"/>
      <path class="st15" d="M164.4,445.5c2.8,4.7,6.3,8.6,11.3,11,1.4,1.6,1.6,3.4.5,5.3-4.3,5.2-9.2,6.8-15,2.3-3.5-.2-6.9-.5-10.4-.8-.4-3.6-.8-7.2-1.2-10.8-.4-13.6,6.6-11.6,14.8-7h0Z"/>
      <path class="st153" d="M149,385.7c.4,3.8.8,7.6,1.2,11.3,2.6,3.3,4,6.9,3.9,11.1,0,4.2-1.6,7.8-4.5,10.9-3.6.1-7.2.3-10.8.4-.2-11-.4-22-.6-33.1,3.6-.2,7.1-.4,10.7-.6h0Z"/>
      <path class="st45" d="M150.1,408c0-3.6,0-7.3.1-11,8.7.4,17.8-1.2,25.8,3.9-1.5,2.3-3,4.7-4.4,7-7.2,6.1-14.3,6.1-21.4,0h0Z"/>
      <path class="st39" d="M194.5,386.1c0-7.5,0-15.1-.1-22.6,7.4-.8,11.3,1.9,11.3,10s-2.2,13-11.1,12.5h0Z"/>
      <path class="st158" d="M150.1,408c7.2,0,14.3,0,21.4,0,.3,18.8-13.8,9-21.9,11,.1-3.7.3-7.4.4-11Z"/>
      <path class="st157" d="M164.2,304.2c-3.5-1.5-7.1-2.9-10.6-4.4-2.2-8-13.7-11.2-11.4-21.7,3.2-24.8,3-49.6.2-74.5,2.7-9.1,11.1-15.7,11.5-25.8.7-4,3.5-6.1,6.7-8,11.7-6.3,2.9-20.6,11.1-28.3,7.2-6.9,16.3-6.4,25.3-6.3,13.3-2.6,28.4,5.6,40.3-6.3,7.2-5.6,18.4-3.3,23.9-12.2,3.3-2.1,6.9-3,10.8-3.3,8.4-.6,16.9-.5,25.3.2,3.8-.7,7,.7,9.9,3.1,6.5,9.2,12.8,10.7,18.6-.7,1.8-2.2,4.2-3.2,7-3.3,9.3-1.9,18.4.9,27.6.6,12.5,0,20.6,7.9,28.5,16.1,3.1,3.2,6,6.6,8.5,10.2,3.8,9.9,15.5,5.6,21.5,11.9,1.2,1.6,2.1,3.4,2.6,5.4,2.8,28.9-1.6,34.4-24.3,30.9-6.8-14.4-16.7-23.2-34-17.8-18-3.2-36.2-.6-54.2-1.7-11.2.4-23.5-3-30.8,9.7-9.6,6-20.1,10.8-27.1,20.4-6.1,5.7-11.6,12.2-20.2,14.1-14.1,5.7-20.5,15.9-20.2,31.4.3,13.4,1.7,27-1.9,40.3-2.9,6.6-7.7,11.3-13.8,14.9-10,2.9-20.2,4.7-30.7,5.2h0Z"/>
      <path class="st163" d="M142.4,203.8c5.3.1,7.5,3,7.5,8.1,0,19.4-.1,38.8-.1,58.2,0,5.1-2.3,7.9-7.5,8.1-6.3-24.8-6.1-49.6.2-74.5h0Z"/>
      <path class="st168" d="M127.1,152.1c2.5-10.1-5.1-23,8.2-30.3,12.4.2,17.2,9.2,21.4,18.7.5,2.9.3,5.7-.7,8.4-1.5,2.6-3.4,4.6-6.8,3.2-3.5-.1-7.1-.2-10.6-.3-3.8,3-7.6,2.9-11.4,0h-.1c0,.1,0,.1,0,.1Z"/>
      <path class="st74" d="M149.2,152.2l4.3-4.4c16.7,4.6,13.5,14.8,7.3,25.8-2.3,1.4-4.6,2.9-6.9,4.4-7.6-7.5-2.6-17.3-4.7-25.8h0Z"/>
      <path class="st145" d="M127.2,152c3.8,0,7.6,0,11.4,0-3.2,7.6,8.4,23-11.4,22,0-7.3,0-14.6,0-22h0Z"/>
      <path class="st41" d="M427.8,375.2c1.3-9-3.3-11.7-11.5-11.5-10.8.2-21.6,0-32.5-.1-5.7-6.5-5.9-13.6-2.4-21.2,4-5.5,10-7,16.3-7.8,10.9,1,21.8,2.6,31.3-5.5,2.9-2.4,7-1.7,10.1,1,3.8,0,7.7.2,11.5.3,6.9,6,3.4,16.8,10.5,22.7,1.4,1.3,2.8,2.6,4.1,3.9-2,21.3-17.6,21.8-33.5,21.9-3,.7-4.2-.7-4.1-3.5h0Z"/>
      <path class="st9" d="M395.6,184.2c14.6.7,21.7-9.9,21.2-31.8,9-6.2,13.1-1.4,15.9,6.8,2.3,8.8-1.7,19,6.3,26.5,1.3,1.1,2.6,2.3,3.9,3.4-.1,2.5-.2,5-.4,7.5-8.2,4.1-9.7,16.2-20.3,17.6-5.7-.2-9.8-3.6-13.8-7.1-5.2-5.8-11.8-10.5-14.5-18.3-.2-1.8.4-3.3,1.8-4.6h0Z"/>
      <path class="st59" d="M443.3,203.6c6.9,2.7,7.5,8.4,7.3,14.8-.4,15.1-.4,30.1-.6,45.2-2,5-1.4,10.7-4.5,15.6-5.8,9.1-11.9,12.2-19.7,2.3-2.6-6-2.5-11.9.5-17.7,12.8-9.7,5.7-23.6,7.8-35.7,1.5-8.7-4.2-20.2,9.2-24.4h0Z"/>
      <path class="st122" d="M443.3,203.6c-8.6,15.3-1.4,31.8-3.7,47.6-.9,6.2,2.8,16.9-10.7,12.1-3.7-2.4-4.6-6.1-5.2-10.1-.7-9.4,0-19.2-5.7-27.6-1.1-5.1-1.5-10,2.8-13.9,10.1-.9,7.4-20.3,21.8-15,.3,2.3.5,4.6.8,7h0Z"/>
      <path class="st55" d="M439.2,329.9c-8.8-2-9.6,8.2-14.9,10-8.5,2.9-17.9,3-25.9-3.1.9-10.4,1.5-20.9,7.8-29.9,3.5-2.3,7.1-2.5,10.9-1,6,7.2,16.5,6.7,22.8,13.4-.2,3.5-.5,7-.7,10.5h0Z"/>
      <path class="st16" d="M439.8,319.4c-8.4-2.6-22.7,6.2-23.1-11.9-5.4-6.9-5.2-14-.9-21.3,3.1-3.2,6.8-4,11-2.4,8.2,5.8,6.3,18.5,15.7,23.5.4,4.3,1.9,8.9-2.7,12.1h0Z"/>
      <path class="st147" d="M442.6,307.3c-20.3,3.1-12-13.1-14.8-21.8-.8-1.6-.4-2.8,1.2-3.7,16.3,4.7,13.5-12.9,21.1-18.2,5.6,16-9.9,28.4-7.5,43.8h0Z"/>
      <path class="st10" d="M461.2,352.9c-18.4-.7-7.6-14.9-10.5-22.7,3.5-.1,6.9-.2,10.4-.4,0,7.7.1,15.4.2,23.1h0Z"/>
      <path class="st171" d="M152.8,36.4c.2-1.1.6-2.2,1-3.2,15.7-7.7,32.5-4.6,48.3-2.6,8.3,1,16.7,1.7,25,2.8,4.5,5.2,3.5,11.9,4.7,18-10.8,9-23,5.9-35.1,4-9.1-4.8-18-9.7-28.7-10.5-6.1-.4-11.9-2.5-15.2-8.5h0Z"/>
      <path class="st63" d="M116.1,408.3c0,3.6,0,7.2,0,10.8-7.3,6.2-14.5,6.2-21.8,0-.2-3.7-.4-7.4-.5-11l.5.4c7.3-6.1,14.6-6.1,22,0Z"/>
      <path class="st89" d="M94.2,419c7.3,0,14.5,0,21.8,0,1.2,9.2-3.6,11.6-11.9,11.5-8.3,0-10.8-4.1-9.9-11.5h0Z"/>
      <path class="st11" d="M116.1,408.3c-7.3,0-14.6,0-22,0-1.5-8.6,2.8-11.8,10.7-11.5,8-.4,12.7,2.5,11.2,11.5h0Z"/>
      <path class="st24" d="M476.7,125.7c-5.3,1.8-8,8.4-14.6,7.8-8-4.8-1.9-19.8-15.1-20.8-4.4-.2-8.7.2-13-.1-7.3-.6-15.6,0-19-8.4-3.8-9.3,2.3-15,9.1-19.9,1.7-1.2,3.6-2.2,5.6-2.9,13.6-2.4,27.1-3.1,40.7.4,2,.9,3.5,2.2,4.7,4,4.9,11.9,3.2,24.2,1.8,36.4-.2,1.2-.3,2.4-.3,3.6h0Z"/>
      <path class="st64" d="M477,122.2c-8.4-11.4-2.1-24.5-4.2-36.7,5.8-4.5,4.9-15.6,15.3-15.6,13.7,16.5,9.9,34.2-11.1,52.3h0Z"/>
      <path class="st151" d="M488.1,69.9c-5.7,4.6-2.9,17.5-15.3,15.6v-1c-3-3.2-4.4-7-4.4-11.4,0-4.4,1-8.5,4.2-11.7,5.3-3,10.2-2.8,14.6,1.6.3,2.3.6,4.6.9,7h0Z"/>
      <path class="st100" d="M487.2,62.9c-4.9.1-9.8.2-14.7.3-3.8,2.9-7.6,2.6-11.5,0-2.6-3.9-2.4-7.8.5-11.4,8.9-.7,17.8-1.3,26,3.4-.1,2.6-.2,5.1-.4,7.7h0Z"/>
      <path class="st102" d="M439.9,419c-.3-3.7-.6-7.3-.9-11,0-3.7,0-7.4,0-11-2.5-3.8-2.8-7.4.9-10.7,11,0,22,0,33-.3,7.7-.2,11.4,3.1,11.3,10.7-.5.7-1,1.4-1.6,2.1-18.5,2.7-13.5,20.8-20.2,31.1-11.4,4.4-11.8-14-22.5-10.9h0Z"/>
      <path class="st118" d="M439.9,386.3c-.3,3.6-.6,7.1-.9,10.7-10.6-.1-21.2-.3-31.8-.4-1.6-14.6,5.2-21.7,20.6-21.4,1.4,1.2,2.7,2.3,4.1,3.5,1.7,3.6,4.1,6.3,8,7.6h0Z"/>
      <path class="st101" d="M495.4,430.5c-3.9-.1-7.9-.2-11.8-.3-7.2-10.7-7.2-21.4.1-32.1l.4-1.5c8.3,0,11.7,4,11.2,12.2-.4,7.2,0,14.4,0,21.6h0Z"/>
      <path class="st90" d="M386.9,133.5c-8.9-4.3-12.9-16.4-24.9-15.7-5.7-5.7-14.8-7-19.2-14.4,9.5-9,15.2-22.4,30-25.1,6.3,15.1,22,10.8,33.1,16.2,4,4.3,4.3,9.7.4,13.3-7.2,6.6-6.4,15.7-9.2,23.7-2.7,3.8-6,4.8-10.1,2.1h0Z"/>
      <path class="st86" d="M406,96.1c-5.5,0-11.1-.6-16.5.2-14.5,2-18.7-5-16.8-18,1.4-1.2,2.7-2.5,4.1-3.7,3.7-5,9.4-5.2,14.8-5.9,9.4,2,13.1-10.7,22.4-8.7,1.6.4,3.1,1.2,4.5,2.2,3.3,4.9,8.7,7.8,11.9,12.8,1.1,3.6.7,6.9-2.2,9.6l.2.8c-8.8.9-13.6,10.1-22.5,10.7h0Z"/>
      <path class="st44" d="M342.8,103.4c7.3,3.6,19.6.6,19.2,14.4-10.5,1.8-20.6.2-30.6-3.3-1-1-1.1-1.8-.6-2.4.5-.5,1-.7,1.4-.7,3.5-2.7,7-5.3,10.5-8h0Z"/>
      <path class="st110" d="M394.6,73.4c-5.9.4-11.8.7-17.7,1.1-.3-2.7-.6-5.3-.9-8,9.6-.9,7.6-8,7.6-14,3.8-.2,7.6-.3,11.5-.5,5.9,7.3,5.6,14.5-.5,21.5h0Z"/>
      <path class="st119" d="M332.3,111.4c-.3,1-.6,2.1-.9,3.1-1.2,1.2-2.4,2.3-3.6,3.5-7.1,6.5-14.6,6.4-22.3,1.1-2.3-1.4-4.7-2.8-7-4.2-.9-.6-1.3-1.3-1.3-2.2,0-.9.1-1.3.3-1.3,2.7-1.2,5.4-2.4,8.1-3.6,9.1-.6,18.3-1.7,26.6,3.6h0Z"/>
      <path class="st3" d="M305.5,85.5c7.4-.3,14.8-.7,22.2-1,.9,19.7-14.1,8.5-21.9,11.3-.1-3.4-.2-6.8-.3-10.3Z"/>
      <path class="st28" d="M127.7,55.7c6.6.5,9.3-5.9,14.3-8.2,22.8-5,30.3-1.4,35.9,17.2.1,4.4-1.7,8-4.7,11.1-8,5.8-14.2,14.9-25.8,14.2-7.7.4-15.4.7-21.7-5.1-5.1-10.1-5.8-20,2-29.2h0Z"/>
      <path class="st82" d="M127.7,55.7c0,9.7,0,19.4.2,29.1,6.3,10.4,7.9,21.4,3.8,33-5,0-10,.2-15,.3-.3-7.5-.7-15.1-1-22.6.3-9.1.8-18.1.9-27.1.1-7.6,2-13.2,11.2-12.7h0Z"/>
      <path class="st50" d="M175.7,66.3c-3.9-19.4-22-13.3-33.7-18.7.2-1.1.3-2.3.4-3.4,3.5-2.6,7-5.2,10.4-7.8,12.8,7.8,32.4-3.1,41.5,15.1-2.1,5.3-6,9.2-9.8,13.2-2.7,1.8-5.4,3.9-8.9,1.6h0Z"/>
      <path class="st178" d="M104.7,95.6c-2.4,1.6-4.9,3.1-7.3,4.7-7.4-12.1-2.4-25.1-2.7-37.7,8.2-1,11.1,3,10.6,10.8-.4,7.4-.5,14.8-.7,22.2h0Z"/>
      <path class="st62" d="M461.6,51.9c.1,3.4.3,6.7.5,10.1-14.4,10-29.1,8.5-44,1.4l-1-1.3c-2.7-3.3-3-6.6,0-9.9,14.9,0,29.7-.1,44.5-.2h0Z"/>
      <path class="st98" d="M417,52.1v9.9c-10.7-2.5-11.2,15.1-22.5,11.4.2-7.2.3-14.3.5-21.5,5-1.3,11.1,1.3,15-4,2.3,1.4,4.6,2.8,7,4.2h0Z"/>
      <path class="st17" d="M183,62.6c2.7-4.8,4.2-10.8,11.3-11.2,12.5,0,25,0,37.5,0,1.1,1,2.3,2.1,3.4,3.1-.4,7.9-1.9,15.4-8.1,21.1-16.7,2.6-29.8-7.3-44.1-12.9Z"/>
      <path class="st137" d="M226.7,74.2c1-7.4-.6-15.8,8.5-19.7,8.6.1,11.1,9.4,18,12,.3,1.3.7,2.5,1,3.8.6,9.6-.8,17.8-13,18.3-4-.3-7.4-1.8-10.4-4.4-2.8-2.7-4.8-5.8-4.1-10h0Z"/>
      <path class="st95" d="M386.9,133.5c3.3-.3,6.4-.9,8.1-4.2,18.5-7.4,37.6-13.4,55.7-21.8,20.6,1.4,6.8,17.7,11.4,26.1,1.4,6.4-5.8,6.5-7.7,10.4-6.1,5.5-12.1,11.1-15.7,18.8-3.3,3.4-6.8,3-10.3.4,0-7.7-2.7-12.6-11.6-10.8h-.1c-4.6-9.2-16.4-4.4-22-11.6-2.6-2.4-5.2-4.9-7.8-7.3h0Z"/>
      <path class="st93" d="M209.4,311.8c-10.2,14.4-25.4,4.2-37.8,7.5-4.6-2.5-8.1-5.7-6.5-11.7,8.5-6.5,18.4-5.2,28.2-4.8,6.8.6,13.2,1.6,16.1,9h0Z"/>
      <path class="st112" d="M194.2,307.7c-9.7,0-19.4-.1-29-.1-.5-1.1-.8-2.2-.9-3.3,8.1-10,19.5-7,29.9-7.7,3.4,3.7,3.1,7.4,0,11.2Z"/>
      <path class="st135" d="M238.4,85.3c12.3,2.3,10.2-10.4,15.8-15.1,7.1,6.2,14.1,12.5,21.2,18.8,1.6,3.5,3.2,7,4.8,10.5-.7,7-2.9,13.3-8,18.4-3.6.4-7.1.8-10.7,1.2-.7-.4-1.5-.7-2.2-1.1-7.4-7.6-15.3-14.8-22.5-22.7-1.2-3.6-1.3-7,1.6-9.9h0Z"/>
      <path class="st141" d="M272.2,117.8c0-7.3-.6-14.8,8-18.4,8.5,0,10.7,9.2,17.4,11.9.4,1.1.8,2.3.9,3.5-8,7.6-17.6,1.9-26.3,3h0Z"/>
      <path class="st8" d="M483.8,398.1c0,10.7,0,21.4-.1,32.1-2.3,1.6-4.5,3.2-6.8,4.8-4.3-3.2-9.1-5-14.4-5-.2-3.7,0-7.4-.6-11-2.9-17.8,3.6-25.5,22-20.8h0Z"/>
      <path class="st43" d="M428.4,163.1c3.4-.1,6.9-.2,10.3-.4.1,7.6.2,15.2.3,22.9-18.2-.6-7.8-14.7-10.6-22.5h0Z"/>
      <path class="st138" d="M131.7,117.8c-4.2-10.7-5.3-21.7-3.8-33,7.4,0,14.8.1,22.2.2,7.9,19.8,30.5,23.5,42.7,38.7,1.8,2.3,5.1,3.4,7,6,1.7,3.9,1.2,7.6-1.6,10.8-8.7.9-17.9-1.7-25.8,4.1-6.7,1.3-13.1,1.4-18.3-4.2-6.2-6.2-12.5-12.4-18.7-18.7-1.2-1.3-2.4-2.7-3.6-4h0Z"/>
      <path class="st34" d="M161.2,464c5.5.5,10.3-1.5,14.7-4.6,6.3.5,13.4-1.6,18.2,4.7-.6,8.4,3.8,11.5,11.6,11.3-.1,3.5-.2,6.9-.3,10.4v.7c-12.1,5.8-23.8,12.4-33.5,22l-.2-.3c-3.6.2-7.2.3-10.8.5.1-14.9.2-29.8.4-44.6h0Z"/>
      <path class="st156" d="M171.8,508.4c5.1-16.7,15.8-24.8,33.7-22-6.3,14.9-16.2,24.2-33.7,22Z"/>
      <path class="st177" d="M317.2,463.7c-26.1,0-52.3.1-78.4.2-2.9-3.5-4-7.5-3-12,2.6-8,8.3-12.6,16.3-14.7,17.3-1.2,34.7-2.9,51.9,1.3,7.2,6.9,19.6,11.1,13.3,25.2Z"/>
      <path class="st143" d="M372.7,452.1c-7.5.2-12.2,3.2-11.4,11.6-3.7,3.7-7.5,7.5-11.2,11.2h-1.5c0,0-1.5,0-1.5,0-2.8-3.5-5.6-6.9-8.4-10.3-2.4-3.8-3-7.7-1.3-11.9,6-7.6,7.9-16.2,7.7-25.8-.1-6.7-.2-13.6,4.5-19.2,3.6-1.9,8.2-2.1,9.8,1.3,6.6,13.7,15.7,26.7,13.3,43.1h0Z"/>
      <path class="st139" d="M238.6,452.4c0,3.8.1,7.6.2,11.4-14.9,0-29.8.2-44.6.3-6.3-.6-12.9,0-18.2-4.7,0-1-.1-2-.2-3,12.1-4.6,24.8-3.5,37.3-3.9,8.5-6.3,17-6.8,25.6-.1h0Z"/>
      <path class="st148" d="M339,453c-.2,3.9-.3,7.7-.5,11.6-7.1-.3-14.2-.6-21.4-1,2.2-10.5-11.9-12.3-11.6-21.8,2.6-3.6,6.5-4.5,10.6-4.8,11.3,0,17.9,6.9,22.9,15.9Z"/>
      <path class="st104" d="M372.7,452.1c-13-11.9-5.3-34.1-22.2-44.1-4.6-3.8-5-9-4.6-14.5.4-3.3,1.5-6.2,3.8-8.6,4.1-2.3,8-2.4,11.5,1.3-3.7,13.6,6.4,24.4,13.7,29.7,15.4,11.2,13.8,22.6,8.3,36.7-3.5-.2-7-.4-10.5-.5h0Z"/>
      <path class="st154" d="M361.2,386.2c-3.5-.4-6.9-.7-10.4-1.1-7.7-5-18.2-8.6-11.9-21.4,3.9,0,7.8-.2,11.6-.3,13.3-7.5,15.4,6.2,22,11.5,0,3.7,0,7.3,0,11-3.8,0-7.6.1-11.4.2h0Z"/>
      <path class="st73" d="M372.5,375c-11,3.1-11.1-14.5-22-11.5,0-3.7-.1-7.4-.2-11,11-4.1,19.2-17.1,33.6-11,0,7.3,0,14.7,0,22-7.1.5-10.9,4.5-11.4,11.5h0Z"/>
      <path class="st96" d="M350.1,393.8c.1,4.8.3,9.5.4,14.3,0,10.9-.5,21.8,0,32.6.3,8.4-3,12.5-11.4,12.3-11,3.2-10.8-14.8-21.9-11.5-22.4-8.8-44.7-9.1-67.1.1-3.8,3.6-7.7,7.2-11.5,10.8-8.5,0-17,.1-25.6.1-3.8-12.9,17.1-10.1,14.3-22.4,7.5-11.9,13.7-24,12.9-38.8-.3-5.5,6.1-5.2,10.1-5.3,7.5-.1,11.3-3.3,11-11,29.6-15.8,70.9-7.1,88.8,18.6h0Z"/>
      <path class="st140" d="M350.1,393.8c-25.2-27.2-58-18-88.8-18.6,0-3.7-.1-7.3-.2-11,22.5-.3,44.9-.6,67.4-1,3.5.2,6.9.4,10.4.5-3.5,11.3,15.1,10.3,11.9,21.4-.2,2.9-.5,5.8-.7,8.6h0Z"/>
      <path class="st80" d="M383.9,341.5c-12.3.4-19.1,17.4-33.6,11-23.7-18.4-51.6-8.7-77.6-11.8-9.7-7.4-20.1-14.1-26.4-25.1-2.3-7.2-2.4-14.5-.9-21.8,1.6-7.5,5.5-12.3,14.2-10.1,9.2,5.9,5.5,19,14,25.3,11,8.2,22.1,15.9,36.8,15.7,15.5-.2,31,.2,46.4,0,14.6-.2,30.5,2.9,37.3-16.2,1.2-3.5,6.1-3.5,10-2.3.8.6,1.5,1.3,2.3,1.9-.8,10.1.5,20.9-8.1,28.8-4.3,3.2-9.2,4.2-14.4,4.6h0Z"/>
      <path class="st170" d="M250.2,318.8c11.3,3.4,18.9,10.5,22.5,21.9-7.6,2.1-15.4-5.1-23,.3,3.5-10.7-14.8-11.1-10.4-22.2,3.7-2.9,7.3-2.7,10.9,0h0Z"/>
      <path class="st136" d="M250.2,318.8c-3.6,0-7.3,0-10.9,0-.2-3.6-.5-7.1-.7-10.7-5.7-6.6-5.3-14.5-5.1-22.5.5-11-2.3-22.3,3.4-32.7,3.1-3.6,7-4.1,11.3-2.7,5.8,12.8,16.9,19.9,28.4,26.7,1.5,4.5-.6,7.6-3.9,10.2-4.1,1.9-7.8,1.4-11.3-1.4-8.7-1-11.9,3.2-11.5,11.5.4,7.2.2,14.3.3,21.5h0Z"/>
      <path class="st155" d="M238.4,285.4c0,7.6.2,15.1.2,22.7-3.4,0-6.8,0-10.2,0-1.6-3.4-4.8-4-8-4.4-1.6-8.2,2.4-14.2,7.6-19.7,3.8-1.8,7.2-1.3,10.4,1.4h0Z"/>
      <path class="st149" d="M228,285.6c.7,7.4-4.4,12.4-7.7,18.1-3.6,2.7-7.3,5.4-10.9,8.1-4.6-3-9.8-4.1-15.3-4,0-3.7,0-7.4,0-11.2,3.6-3.9,7.3-7.7,10.9-11.5,9.6-7.4,5-18,5.9-27.2.7-7.2-.8-14.7,1.8-21.7,3.1-8.6,8.6-11.5,16.8-5.7,5.3,18.6,7.1,37-1.5,55.2h0Z"/>
      <path class="st5" d="M227.3,229.8c-9.6-.7-10.7,5.3-10.6,12.8.1,10.3-.4,20.6-.2,30.9.2,8.1-2.2,13-11.5,11.5.2-16.5-1.4-33.3,1-49.6,2-13.7,6.7-28.5,25.9-27.7,4.2,5.2,4.4,10.9,2.2,17-1.4,2.9-3.7,4.7-6.9,5.1h0Z"/>
      <path class="st105" d="M231.4,225.9c.2-6.1.4-12.1.6-18.2,9.1.9,7.8-14.1,17.9-11.7.9.1,1.8.2,2.7.4,8.5,3.6,13.5,9.4,11.6,19.3-.5,1.7-1.4,3.3-2.4,4.7-11.5,7.5-3.7,21.1-9.6,30.4-.6.6-1.2,1.2-1.9,1.8-3.7-.1-7.5-.3-11.2-.4-8.2-7.1-4-17.9-7.8-26.3h0Z"/>
      <path class="st97" d="M306,163.6c19.6.6,39.6-4.7,58.8,3.4,1.4,2.1,1.3,4.1-.2,6.1-18.9,10.9-38.4,8.1-58.1,2.5-3.6-3.9-4.1-7.9-.5-12Z"/>
      <path class="st123" d="M249.9,196c3.6-13.1,13.2-18.1,25.9-18.8,2.9-1.7,5.8-1.7,8.7.1,4.2,5.7,4,11.7,1.4,17.9-1.1,1.9-2.7,3.3-4.6,4.2-10.6,4.2-20.7,1.4-30.8-1.8l-.5-1.6h0Z"/>
      <path class="st85" d="M198,140.6c0-3.6-.2-7.2-.2-10.7,2.6-3.7,6.5-4.7,10.6-5.2,9-.4,18.1-1.1,26.9,1.7,1.9.9,3.3,2.3,4.2,4.2,0,8-4.3,10.6-11.8,10.3-9.9-.4-19.7-.2-29.6-.3h0Z"/>
      <path class="st6" d="M154,140.5c6.2,1,13.3-2.2,18.3,4.2-.1,6.5-.5,13-.4,19.5.1,7.9-3.9,10.5-11.1,9.5-1.2-8.9,4.5-19.8-7.3-25.8.2-2.4.3-4.9.5-7.4h0Z"/>
      <path class="st103" d="M365.3,169.7c-.1-.9-.3-1.9-.5-2.8,23.9-9.2,28.8-6.4,30.8,17.2l-.9,1.6c-1.6.9-3.3,1.1-5,.8-8.7-4.8-21.4-3.6-24.4-16.8h0Z"/>
      <path class="st65" d="M283.5,178.5c-2.6-.4-5.2-.8-7.8-1.3,2-22.5,18.9-11.9,30.3-13.6-.2,3.4-.4,6.8-.6,10.1-.5.7-1.1,1.4-1.6,2.2-6.4,3.4-12.9,6.5-20.3,2.6h0Z"/>
      <path class="st175" d="M261.5,119c-.9,16.3-14.3,8.5-22,11.4-.3-.5-.7-1.1-1-1.6-.3-15.8,3.8-17.8,22.2-11.5l.8,1.7Z"/>
      <path class="st36" d="M305.6,119.1c7.4-.4,14.9-.7,22.3-1.1.7,7.1-1.3,11.5-9.6,11.7-7.7.1-13.2-1.3-12.7-10.6h0Z"/>
      <path class="st22" d="M394.7,140.8c8.5,1.6,22.3-7,22,11.5-8.3-2-21.3,5.1-22-11.5Z"/>
      <path class="st94" d="M420.7,211.6c0,4.6,0,9.1.1,13.7.7,5.9,1.6,11.9-3,16.9-11.4,5.9-26.7,2.5-35.2,15.2-6,2-10.5.2-13.3-5.4-3-11.8-3.2-22.4,11.3-26.8,12.1.4,21.7-2.2,22.5-17.1.2-2.9,2.9-5.3,6.7-4.8,3.6,2.7,7.3,5.5,10.9,8.2h0Z"/>
      <path class="st150" d="M409.8,203.4c-1.1,2-3.5,4.2-3.2,6,2.8,18.8-7,22.8-22.9,20.2-.7-11.4,5.7-22.8.1-34.2.6-4.9,2.4-8.8,7.4-10.6,1.2.4,2.3.7,3.5.9,5,5.9,10,11.7,15.1,17.6h0Z"/>
      <path class="st19" d="M428.9,281.7c-.4,1.2-.8,2.5-1.2,3.7-3.2.1-6.3.2-9.5.3-.9-.6-1.8-1.2-2.7-1.9-5.3-10.6-5.2-21.1.2-31.6,3.9-3.3,7.9-3.5,11.9-.2.4,3.7.9,7.4,1.3,11.1,0,6.2,0,12.3,0,18.5h0Z"/>
      <path class="st33" d="M427.6,252.1c-3.3-.1-6.6-.3-9.9-.4-3.6-3.1-3.5-6.7-1-10.4,1.6-5.2-2-11.9,4.2-15.9,11.3,6.6,6.9,17.2,6.7,26.8h0Z"/>
      <path class="st13" d="M418.3,285.8c-.5,7.2-1,14.5-1.6,21.7-3.4.2-6.8.4-10.3.6l-1.1-.6c-5.3-7.1-5-14.3-.8-21.8,3.8-3.4,7.8-3.8,12.1-1,.5.5,1,.8,1.7,1h0Z"/>
      <path class="st99" d="M450.8,107.5c-15.3,15.7-33.7,23.2-55.7,21.8-1.9-10-5.6-20.5,9.1-24.8,1.3-.4,1.3-5.5,1.9-8.5,5.6-7.4,11.9-13.6,22.5-10.7-2.6,6.3-14.4,8-10.1,17.2,4,8.5,12.9,3.7,19.7,4.7,4.2.6,8.5.2,12.7.2h0Z"/>
      <path class="st152" d="M428.3,84.5c0-3.4,0-6.9-.1-10.3,14.4-9.5,29.1-8.4,44-1,.3,3.8.5,7.5.8,11.2-14.9,0-29.8,0-44.6,0h0Z"/>
      <path class="st126" d="M472.1,73.2c-14.7.3-29.3.7-44,1-6.9-.3-12.1-2.3-10.1-10.9,14.7-.5,29.3-.9,44-1.4,3.5.4,7,.9,10.5,1.3-.1,3.3-.2,6.6-.4,9.9Z"/>
      <path class="st109" d="M260.7,117.4c-7.8,3.2-21.2-4.6-22.2,11.5-9.7.1-19.4.3-29.1.4-16.4-7-27-20.1-36.8-34.2-5-7.2-6.5-14.3-.8-21.7,1.3-2.4,2.7-4.7,4-7.1,2.5-1.2,4.9-2.4,7.4-3.6,16.9-5.2,28.4,10.6,43.7,11.5,1.6,2.3,3.2,4.7,4.8,7,.2,9.6-8.1,6.9-13.1,8.9-3.3,1.3-8.2,1.3-7.9,6.1.4,5.7,5.8,5.2,9.9,5.8,7.3,1.1,12.8-3.3,18.7-6.2,11.6,2.9,18.6,10.2,21.5,21.7h0Z"/>
      <path class="st159" d="M171.7,73.3c0,21,15.5,32.5,28.9,44.8,3.7,3.4,6.1,7.2,8.8,11.1-3.8.2-7.6.4-11.5.6-5.7-1-10.6-.8-15.6-6.7-6.2-7.3-12-16.4-25.2-17.2-12.4-.7-5.4-13.5-7.1-20.9,10.9,2.9,10.6-15,21.7-11.7h0Z"/>
      <path class="st30" d="M239.2,95.7c0,7.1-2.2,12.3-10.6,11.5-8.3-.8-18.6,3.7-24.3-4.6-5.6-8.1-2.8-15.4,8-17.5,6.4-1.2,13.8,2.3,19.1-3.9,2.3,1.4,4.6,2.8,6.9,4.1l.8,10.4h0Z"/>
      <path class="st144" d="M250,441.6c3.2-20.3,19.8-11.7,28.8-10.4,12.7,1.7,31.2-12.7,38.3,10.3-3.9.1-7.7.2-11.6.3-18.5,0-37-.1-55.5-.2h0Z"/>
      <path class="st115" d="M406.9,284.8c-.5,7.6-1,15.1-1.5,22.7-4.1.6-10,.2-9.9,5.9.3,17.9-11.8,16.9-23.9,16.8-19.6-.2-39.4-1.5-58.9.3-17.8,1.7-29.8-8.6-43.1-16.4-10.9-6.4-8.6-17.9-8.3-28.3,3.6-.2,7.2-.4,10.8-.5,13.8,7.6,27.6,15,42.8,19.5,1.6.7,3,1.6,4.2,2.8,13.2,10,26.5,9.9,39.9.2,1.3-1.2,2.7-2.2,4.3-3,15.2-3.2,26.4-10.2,27.9-27.5.4-4.4,3-8.1,8.3-8.4,8.2,2.6,11.5,7.5,7.4,15.9h0Z"/>
      <path class="st46" d="M317.1,307.7c-18.8.2-34.3-6.2-44.9-22.4,1.4-2.3,2.9-4.5,4.3-6.8,3.2-9.9,7.9-17.1,19.9-10.6,3.9,5.3,7.5,10.4,14.1,13.4,12.7,5.7,14.1,15.1,6.6,26.4h0Z"/>
      <path class="st54" d="M294.8,267.3c-9.3-1.5-11.6,8.4-18.3,11.2-2.8-1.2-5.8-3.6-8.4-3.4-18.4,2.1-19.8-8.8-17.7-22.5l-.4-.9c10.9-8.3,24.1-2.9,35.9-6.2,4.4-.3,8.2.8,10.9,4.6,2.5,4.9,2.6,9.9.2,14.9-.7.8-1.4,1.5-2.1,2.2h0Z"/>
      <path class="st69" d="M231.4,225.9c14.2,5.3,4.4,17.8,7.7,26.3-.3,11-.5,22.1-.8,33.1-3.4,0-6.9.1-10.3.2-.2-18.6-.5-37.2-.7-55.7,1.4-1.3,2.7-2.6,4.1-3.9Z"/>
      <path class="st132" d="M261,218.5c.1-1.1.2-2.3.2-3.5,4.3-9.9,16.2-10.8,22.1-18.9h-.1c3.6-2.6,7.4-3.2,11.4-1.2,3.9,21.8,23.4,16.5,37.2,21.4,4.6,3.2,7,7.3,5,13-1.9,2.5-4.5,3.9-7.4,4.6-10.8,3.5-24.6-4.4-33.1,8.5-3.1,2.7-6.9,3.7-10.9,4.3-1.8,0-3.6,0-5.4,0-23.8,1.2-28.7-6.1-19-28.3h0Z"/>
      <path class="st88" d="M261,218.5c0,3.1.4,6.2.1,9.2-.8,11.7.6,20.2,16,14,2.6-1.1,6.9,1.9,10.3,3,1.1.6,1.5,1.4,1.3,2.2-.2.9-.5,1.3-.8,1.3-12.1,8.1-25.3,2.5-38,3.4,0-7.4.3-14.8,0-22.2-.4-8,3.5-11.3,11.1-11h0Z"/>
      <path class="st76" d="M283.3,196.2c.8,15.9-15.4,11.8-22.1,18.9,2-9.3-7-11.8-10.9-17.4,11-.5,22-1,33-1.5h0Z"/>
      <path class="st27" d="M391.2,184.8c-1.3,3.7-2.5,7.4-3.8,11.1-7.1,6.9-15.3,6-23.8,3.7-2-.8-3.7-1.9-5.3-3.4-11.5-10.9-25.9-3-38.6-5.8-8.5-1.9-20.7-.9-13.7-16.1l-.6-.7c20-1.4,40.5,5,59.9-4,5.8,9.9,20.7,4.2,25.9,15.1h0Z"/>
      <path class="st124" d="M306,174.4c-.9,9.3,4.6,11.1,12.4,10.9,10.3-.2,20.6.3,30.8,0,8-.2,13,2.1,12.4,11.1-3.2,4-7.7,4.9-12.5,5.2-18.1-.4-36.8,5.4-54-4.8-3.9-.2-7.9-.4-11.8-.6.1-5.9.2-11.8.3-17.8,7.5-1.2,14.3-6.7,22.5-4.1h0Z"/>
      <path class="st87" d="M350.1,197.2c3.8-.3,7.6-.6,11.5-.9l-.2.2c8.4,9.3,5.1,20.8,5.8,31.6.6,8.3-2.2,17.3,4.8,24.3,3,4.8,7.6,3.5,12,3.2.7.7,1.4,1.4,2.1,2,10.5,25.8-9,37-24.5,50.1h0c-14.8,8.5-29.6,8.5-44.5,0,0,0,0,0,0,0-.5-10.4,3.4-22.7-15-22.8-11.3,0-6-11.1-7.3-17.6l-.3-.4c5.2-6.2,12.1-8.5,19.9-8.7,19.5-.2,18.8-15.3,20.9-28.4-1.3-3.7-2.5-7.3-3.8-11,5.2-8.1,10.8-15.7,18.5-21.6h0Z"/>
      <path class="st107" d="M371.9,252.5c-9.6.3-10.6-5.9-10.5-13.4.2-14.1,0-28.3-.1-42.5,8.7-.2,17.4-.4,26.1-.6,9.6,12.4,3.7,23.1-3.8,33.6-17.1.8-8.5,14.9-11.8,22.9h0Z"/>
      <path class="st57" d="M406.9,284.8c0-6.2-1.6-11.6-8.2-14.2-8.1-1.5-10.7-8.9-15.3-14.2l.4-.7c-1.6-11.1,2.9-16.2,14.3-15,6.1.6,12.3.4,18.5.6.4,3.5.7,6.9,1,10.4-.4,11-.7,22.1-1.1,33.1-3.2,0-6.5,0-9.7,0h0Z"/>
      <path class="st91" d="M383.4,256.5c7.1,2.6,11.2,8.4,15.3,14.2-4.1,2.9-3.5,7.3-3.8,11.5-1.4,17.9-11.4,25.5-33.5,25.8.3-4.1,0-8.1,4.6-10.9,15.5-9.2,20.3-23.2,17.4-40.5h0Z"/>
      <path class="st142" d="M317,307.8c14.8,0,29.6,0,44.5,0-.4,2.4.1,5.6-1.2,7-9.3,9.8-39.1,4.7-43.2-7.1h0Z"/>
      <path class="st51" d="M288,248.3c-.5-1.1-.6-2.3-.5-3.5,2.2-1.5,4.5-2.9,6.7-4.4,18.8-7,22.8-5.1,23.6,11.2-7.4,6.9-15.1,6.7-23,1.1-1.3-3-3.8-4-6.8-4.3Z"/>
      <path class="st172" d="M294.8,252.7c7.3-.4,14.7-.8,22-1.1.6.6,1.2,1.3,1.8,1.9,1.4,3.6,1.2,6.8-2.1,9.4-7.4,1.4-14.7,2.7-22.1,4.1,0-4.8.2-9.5.3-14.3h0Z"/>
      <path class="st106" d="M350.1,197.2c-3.6,9.4-6.5,19.4-18.5,21.6-5.6,0-11.2-.8-16.6,0-18.2,2.8-23.1-5.9-19.9-22.1,18.4.1,36.7.3,55,.4h0Z"/>
      <path class="st116" d="M316.8,251.5c-.3-18.5-15.3-7-22.6-11.1-.4-9.4,5.5-11,13.1-10.7,6.7.2,13.4.3,20.1.5,8.6,17.3,6.3,22.5-10.1,22.9l-.4-1.5h0Z"/>
      <path class="st83" d="M317.2,253c17.3-1.5,8.9-14.3,10.1-22.9,2.7-.1,5.3-.2,8-.3,7.4,19.7,1.9,29.5-18.8,33,.2-3.3.4-6.5.6-9.8h0Z"/>
    </g>
  </g>
</svg>